<svg width="109" height="28" viewBox="0 0 109 28" fill="none" xmlns="http://www.w3.org/2000/svg">
<path d="M13.3643 8.00976C13.3643 8.00976 18.0973 4.04233 24.6401 2.09342C31.1829 0.144501 36.8904 0.144488 36.8904 0.144488C36.8904 0.144488 41.7627 -0.533935 49.976 1.04934C58.1893 2.63261 65.4977 7.66285 70.718 11.2812C75.9383 14.8995 85.4045 19.7728 90.3464 19.7729C94.4587 19.7729 95.6792 19.1945 95.9731 19.0003C96.0265 18.9593 96.0539 18.9376 96.0539 18.9376C96.0539 18.9376 96.0323 18.9611 95.9731 19.0003C95.3029 19.5145 90.5332 23.0696 84.1516 25.1323C77.2608 27.3596 68.4907 27.7152 59.0941 26.1068C49.6976 24.4984 32.4358 12.3948 30.278 11.2812C28.1203 10.1675 20.9511 7.38333 17.9581 7.45293C14.9652 7.52253 13.3643 8.00976 13.3643 8.00976Z" fill="url(#paint0_linear_571_618)"/>
<path d="M19.6284 12.9516C25.6839 11.9771 33.2012 15.1789 33.2012 15.1789C33.2012 15.1789 22.8997 9.33219 17.401 9.05376C11.9023 8.77533 9.46616 11.0027 6.19476 14.2045C2.92337 17.4062 0 25.0627 0 25.0627C0 25.0627 2.12399 21.4938 4.03704 19.7032C6.65851 17.2494 7.87409 16.5168 11.2063 15.1789C13.9054 14.0952 13.5728 13.926 19.6284 12.9516Z" fill="#2062F0"/>
<path d="M86.7962 17.5452C82.6895 16.71 76.0771 12.3945 76.0771 12.3945C76.0771 12.3945 84.4338 16.2924 95.2183 12.8818C106.003 9.47117 109 1.74512 109 1.74512C109 1.74512 107.329 6.68701 105.241 9.74959C103.153 12.8122 99.3945 16.7796 96.8888 17.5452C94.383 18.3109 90.9028 18.3805 86.7962 17.5452Z" fill="#5CA5FE"/>
<defs>
<linearGradient id="paint0_linear_571_618" x1="13.2929" y1="1.29063e-07" x2="96.1506" y2="35.6687" gradientUnits="userSpaceOnUse">
<stop stop-color="#3782FB"/>
<stop offset="1" stop-color="#BDDBFF"/>
</linearGradient>
</defs>
</svg>
